:SAMPLES-PER-SECOND 30
:FULLY-SPECIFIED
:DEGREES
735
root  -27.7073 38.4059 1.08073 0.8479 20.1754 4.02251
RightUpLeg  -19.0601 -6.48965 -9.91589
RightLeg  33.1235 5.48306 3.59433
RightFoot  -13.0187 -0.078465 0.685274
RightToes  5.82063e-011 0 -3.6325e-017
Spine  22.3654 -0.476183 3.99676
Spine1  2.52092 -0.415307 2.97707
HEad  -40.0002 -2.99889 -9.34388
LeftShoulder1  0.816313 0.906416 -25.2107
LeftArm  -17.2001 -23.8534 -41.5135
LeftForeArm  14.1886 -71.2987 -35.4054
LeftHand  -0.0554928 6.29293 -2.30843
RightShoulder  0.242559 -2.46131 17.0964
RightArm  -20.7006 30.8676 20.1721
RightForeArm  0.78113 74.2016 48.8781
RightHand  -0.208945 2.54892 -3.26807
LeftUpLeg  -19.0756 4.14909 11.9561
LeftLeg  28.2511 -0.895103 -0.195654
LeftFoot  -7.84357 0.230607 -6.01753
LeftToes  1.68253e-010 -3.2327e-011 -2.69673e-012
736
root  -29.1108 38.7151 1.24854 1.68396 26.143 4.00706
RightUpLeg  -18.1545 -11.2488 -7.6595
RightLeg  31.1277 4.06629 2.40231
RightFoot  -12.2448 -0.0868051 -0.50453
RightToes  5.82063e-011 0 -3.6325e-017
Spine  21.2656 -0.557655 4.48449
Spine1  3.02321 -0.475746 3.08222
HEad  -40.1797 -1.24884 -11.4388
LeftShoulder1  0.875829 0.679424 -24.7989
LeftArm  -16.0788 -24.3598 -41.5332
LeftForeArm  13.1121 -71.0423 -34.9123
LeftHand  -0.0427042 6.15468 -1.29596
RightShoulder  0.201438 -2.6502 17.6215
RightArm  -20.5615 28.9222 20.1462
RightForeArm  2.67869 74.6455 50.9228
RightHand  -0.192312 2.48295 -3.03345
LeftUpLeg  -19.3788 6.85247 10.2373
LeftLeg  31.7626 -0.00508918 0.340526
LeftFoot  -8.28772 0.233395 -6.90267
LeftToes  1.68253e-010 -3.2327e-011 -2.69673e-012
737
root  -30.4959 38.9952 1.49249 2.36938 31.7001 3.86168
RightUpLeg  -17.3877 -15.5051 -5.18704
RightLeg  28.7662 2.49151 1.24158
RightFoot  -11.469 -0.0794452 -1.73715
RightToes  5.82063e-011 0 -3.6325e-017
Spine  20.6075 -0.363066 4.53323
Spine1  2.95129 -0.290962 3.21902
HEad  -39.5111 0.313505 -12.0915
LeftShoulder1  0.902641 0.521568 -24.009
LeftArm  -15.611 -24.3657 -41.8629
LeftForeArm  14.5301 -71.3644 -35.5201
LeftHand  -0.0545257 6.86009 -1.16756
RightShoulder  0.182557 -2.75087 18.4256
RightArm  -19.9724 26.7713 19.7166
RightForeArm  5.27029 75.309 54.5323
RightHand  -0.247521 2.74653 -3.75301
LeftUpLeg  -18.7211 9.16786 8.99948
LeftLeg  34.46 0.580499 0.781151
LeftFoot  -8.76258 0.223217 -7.55967
LeftToes  1.68253e-010 -3.2327e-011 -2.69673e-012
738
root  -31.8413 39.2107 1.78066 2.98206 37.7378 3.8743
RightUpLeg  -16.797 -19.7473 -2.88199
RightLeg  26.51 0.587471 0.0600052
RightFoot  -10.743 -0.057891 -2.85701
RightToes  5.82063e-011 0 -3.6325e-017
Spine  20.1365 -0.244331 4.21961
Spine1  2.9933 -0.357032 3.93212
HEad  -39.1349 2.59758 -13.9004
LeftShoulder1  0.803995 0.87774 -24.3644
LeftArm  -14.8381 -25.2128 -41.6519
LeftForeArm  15.7722 -71.6647 -36.1266
LeftHand  -0.069668 6.9318 -2.21245
RightShoulder  0.185687 -2.73114 18.1709
RightArm  -19.6949 24.5917 20.034
RightForeArm  8.55198 75.9032 58.3012
RightHand  -0.269689 2.79203 -4.04782
LeftUpLeg  -17.4816 10.8734 7.90252
LeftLeg  36.5589 1.11146 1.24853
LeftFoot  -9.01959 0.198973 -7.15292
LeftToes  1.68253e-010 -3.2327e-011 -2.69673e-012
739
root  -33.1398 39.356 2.11815 3.71643 44.553 4.49112
RightUpLeg  -16.2257 -24.625 -1.1944
RightLeg  24.5484 -1.51074 -0.881955
RightFoot  -10.3658 -0.0358049 -4.04278
RightToes  5.82063e-011 0 -3.6325e-017
Spine  19.7662 -0.247706 3.698
Spine1  3.3025 -0.533417 4.44412
HEad  -38.5488 4.71477 -15.3093
LeftShoulder1  0.811522 0.83743 -24.1715
LeftArm  -14.1467 -26.225 -42.0675
LeftForeArm  16.4922 -71.7796 -36.3182
LeftHand  -0.0663366 6.58258 -2.62823
RightShoulder  0.160195 -2.83841 18.371
RightArm  -20.2213 22.5097 19.7012
RightForeArm  11.766 76.4317 62.4973
RightHand  -0.377238 3.76704 -5.00539
LeftUpLeg  -15.548 11.7177 6.66584
LeftLeg  37.9982 1.73373 1.81493
LeftFoot  -9.2247 0.184788 -7.00165
LeftToes  1.68253e-010 -3.2327e-011 -2.69673e-012
740
root  -34.3631 39.4319 2.50765 4.87195 51.6486 5.58064
RightUpLeg  -15.9361 -27.6481 -0.276347
RightLeg  23.183 -5.63526 -1.62252
RightFoot  -10.1567 -0.0142592 -5.23917
RightToes  5.82063e-011 0 -3.6325e-017
Spine  19.041 -0.315715 2.92473
Spine1  4.02947 -0.865981 5.06596
HEad  -38.4813 7.31659 -16.1015
LeftShoulder1  0.736716 1.05439 -23.8071
LeftArm  -13.1144 -27.3128 -42.891
LeftForeArm  16.3471 -71.7415 -36.2359
LeftHand  -0.0598465 6.43091 -2.43934
RightShoulder  0.128727 -2.97243 18.7928
RightArm  -20.7308 20.8032 19.2393
RightForeArm  15.054 76.9073 67.3924
RightHand  -0.525788 4.52887 -6.44616
LeftUpLeg  -13.2331 13.1474 5.68756
LeftLeg  38.9575 1.83977 1.9665
LeftFoot  -9.59671 0.160891 -6.79396
LeftToes  1.68253e-010 -3.2327e-011 -2.69673e-012
741
root  -35.5353 39.4901 2.9347 6.53235 58.7135 7.36513
RightUpLeg  -15.2902 -28.0094 -0.296335
RightLeg  21.868 -12.4236 -2.18122
RightFoot  -9.92125 0.00813881 -6.06973
RightToes  5.82063e-011 0 -3.6325e-017
Spine  18.828 -0.413059 2.57425
Spine1  4.10611 -0.927137 4.76401
HEad  -37.8573 10.1471 -16.9697
LeftShoulder1  0.774374 0.907659 -23.5382
LeftArm  -11.8462 -28.029 -43.4907
LeftForeArm  15.9443 -71.7252 -36.2691
LeftHand  -0.0490323 6.18858 -1.79118
RightShoulder  0.107668 -3.06212 19.2282
RightArm  -22.2559 18.569 18.8245
RightForeArm  21.421 77.3323 72.1735
RightHand  -0.428756 3.89926 -5.61071
LeftUpLeg  -10.4051 14.4403 4.98391
LeftLeg  39.6108 2.7324 2.79476
LeftFoot  -9.51948 0.164165 -6.73507
LeftToes  1.68253e-010 -3.2327e-011 -2.69673e-012
742
root  -36.5973 39.4915 3.35864 10.0823 66.085 11.0844
RightUpLeg  -15.0462 -28.2723 -1.00198
RightLeg  21.4357 -19.5848 -2.7899
RightFoot  -9.89219 0.0198344 -6.8196
RightToes  5.82063e-011 0 -3.6325e-017
Spine  18.3596 -0.572485 1.91935
Spine1  4.60508 -1.2247 4.91585
HEad  -37.6425 13.5402 -19.2283
LeftShoulder1  0.728498 1.0639 -23.5659
LeftArm  -10.5348 -28.7753 -44.4506
LeftForeArm  15.7761 -71.7854 -36.4788
LeftHand  -0.0346269 5.97474 -0.524251
RightShoulder  0.0298491 -3.36284 19.1696
RightArm  -23.4438 16.6295 18.5085
RightForeArm  27.7558 77.688 78.4224
RightHand  -0.35445 3.1581 -5.05178
LeftUpLeg  -7.52524 16.2167 4.30449
LeftLeg  40.0889 3.52313 3.5485
LeftFoot  -9.52473 0.164515 -6.777
LeftToes  1.68253e-010 -3.2327e-011 -2.69673e-012
743
root  -37.5932 39.5012 3.79199 16.7451 73.3238 17.8339
RightUpLeg  -14.7682 -27.8579 -2.04919
RightLeg  21.0728 -27.4909 -3.36097
RightFoot  -9.70632 0.0428376 -7.57611
RightToes  5.82063e-011 0 -3.6325e-017
Spine  17.6854 -0.660017 1.22126
Spine1  5.22692 -1.4863 5.12426
HEad  -37.7348 16.9154 -21.5192
LeftShoulder1  0.692222 1.18919 -23.6285
LeftArm  -9.48677 -29.4175 -45.8391
LeftForeArm  16.0762 -71.7455 -36.3013
LeftHand  -0.0318244 5.83112 -0.921991
RightShoulder  0.00406852 -3.46345 19.4503
RightArm  -24.73 14.7249 17.7713
RightForeArm  32.8357 77.8497 83.9952
RightHand  -0.400192 3.56465 -5.43626
LeftUpLeg  -4.63744 18.5921 4.12624
LeftLeg  40.2185 4.73132 4.65098
LeftFoot  -9.11233 0.180119 -6.45594
LeftToes  1.68253e-010 -3.2327e-011 -2.69673e-012
744
root  -38.5484 39.4816 4.21879 32.8727 79.9748 34.0446
RightUpLeg  -14.4399 -27.6124 -3.06607
RightLeg  20.8479 -35.0851 -3.76393
RightFoot  -9.68026 0.0518282 -8.06621
RightToes  5.82063e-011 0 -3.6325e-017
Spine  17.4236 -0.613272 0.638278
Spine1  5.13769 -1.66259 5.76613
HEad  -37.5481 20.023 -22.9027
LeftShoulder1  0.651087 1.36452 -24.1656
LeftArm  -8.10521 -29.4931 -47.0817
LeftForeArm  16.825 -71.9564 -36.7785
LeftHand  -0.0377204 5.9583 -1.13559
RightShoulder  0.0116378 -3.43403 19.3058
RightArm  -25.7421 12.4092 17.1025
RightForeArm  39.0987 77.9106 90.577
RightHand  -0.459503 4.29108 -5.78845
LeftUpLeg  -1.59767 21.8812 5.06809
LeftLeg  40.2311 5.63167 5.46047
LeftFoot  -8.73693 0.189 -5.98503
LeftToes  1.68253e-010 -3.2327e-011 -2.69673e-012
745
root  -39.4624 39.4403 4.6175 77.0345 83.9279 78.1228
RightUpLeg  -14.463 -28.2116 -4.12162
RightLeg  20.8824 -41.7251 -4.21558
RightFoot  -9.75161 0.0530125 -8.53302
RightToes  5.82063e-011 0 -3.6325e-017
Spine  16.4979 -0.54743 -0.213379
Spine1  5.74323 -1.96437 6.67265
HEad  -37.4074 23.0062 -24.3278
LeftShoulder1  0.643003 1.37364 -23.9087
LeftArm  -7.23571 -29.0324 -48.656
LeftForeArm  18.601 -72.4556 -37.9735
LeftHand  -0.0416443 5.88123 -0.604044
RightShoulder  0.0024808 -3.46908 18.9977
RightArm  -26.8459 11.0295 16.5115
RightForeArm  42.8692 77.8763 94.2985
RightHand  -0.506412 5.22779 -5.83984
LeftUpLeg  1.06087 25.1202 6.29376
LeftLeg  40.1256 7.26572 6.89075
LeftFoot  -8.36481 0.181947 -5.13291
LeftToes  1.68253e-010 -3.2327e-011 -2.69673e-012
746
root  -40.3201 39.4265 5.0093 135.854 81.413 136.985
RightUpLeg  -14.1443 -27.7136 -5.41914
RightLeg  21.1168 -49.2793 -5.1397
RightFoot  -9.48912 0.0830883 -9.05475
RightToes  5.82063e-011 0 -3.6325e-017
Spine  16.3019 -0.344354 -1.31987
Spine1  5.10495 -2.26773 8.18899
HEad  -37.0278 25.9376 -25.3211
LeftShoulder1  0.615158 1.47641 -24.0747
LeftArm  -6.30192 -28.0565 -50.1038
LeftForeArm  20.6965 -72.9895 -39.318
LeftHand  -0.0471254 5.90238 -0.391892
RightShoulder  -0.048273 -3.66559 19.3336
RightArm  -27.2478 9.77532 14.7966
RightForeArm  45.2774 77.7987 97.2992
RightHand  -0.465291 4.14022 -5.91049
LeftUpLeg  3.77779 28.5083 8.28965
LeftLeg  39.6835 8.96778 8.26326
LeftFoot  -7.58859 0.128555 -2.53343
LeftToes  1.68253e-010 -3.2327e-011 -2.69673e-012
